# xmcd database file
#
# Track frame offsets:
# 150
# 18278
# 32650
# 52454
# 71990
# 86573
# 96773
# 111153
# 131540
# 150758
# 168537
# 195356
# 238412
#
# Disc length: 3584 seconds
#
# Revision: 1
# Processed by: cddbd v1.5.1PL0 Copyright (c) Steve Scherf et al.
# Submitted via: CD-Runner 2005.30
#
DISCID=ad0dfe0d
DTITLE=Buddy Guy and Junior Wells - Buddy Guy and Junior Wells Play The Blues [CD1]
DYEAR=2005
DGENRE=Blues
TTITLE0=A Man Of Many Words
TTITLE1=My Baby She Left Me (She Left Me A Mule To Ride)
TTITLE2=a. Come On In Baby  b. Have Mercy Baby
TTITLE3=T-Bone Shuffle
TTITLE4=A Poor Man's Plea
TTITLE5=Messin' With The Kid
TTITLE6=This Old Fool
TTITLE7=I Don't Know
TTITLE8=Bad Bad Whisky
TTITLE9=Honeydripper
TTITLE10=Dirty Mother For You
TTITLE11=Stone Crazy
TTITLE12=Why Am I Treated So Bad? (Playin' The Blues)
EXTD=
EXTT0=
EXTT1=
EXTT2=
EXTT3=
EXTT4=
EXTT5=
EXTT6=
EXTT7=
EXTT8=
EXTT9=
EXTT10=
EXTT11=
EXTT12=
PLAYORDER=
